<?xml version="1.0" encoding="utf-8" ?>
<svg version="1.1" id="Layer_1" xmlns="http://www.w3.org/2000/svg" xmlns:xlink="http://www.w3.org/1999/xlink" x="0px" y="0px"
     viewBox="0 0 41.3 48.1" style="enable-background:new 0 0 41.3 48.1;" xml:space="preserve">
<style type="text/css">
    .st0 {
        fill: #FFFFFF;
    }
</style>
<path d="M10.824 45C7.58133 45 5.064 44.1467 3.272 42.44C1.48 40.7333 0.584 38.344 0.584 35.272V9.672C0.584 6.68533 1.43733 4.36 3.144 2.696C4.89333 1.032 7.304 0.199997 10.376 0.199997H30.28C31.56 0.199997 32.5413 0.498664 33.224 1.096C33.9067 1.65066 34.248 2.46133 34.248 3.528C34.248 4.552 33.8853 5.36267 33.16 5.96C32.4773 6.51467 31.5173 6.792 30.28 6.792H11.848C10.9947 6.792 10.312 7.06933 9.8 7.624C9.33067 8.17866 9.096 8.94666 9.096 9.928V18.824H25.416C26.696 18.824 27.6773 19.1227 28.36 19.72C29.0427 20.2747 29.384 21.0853 29.384 22.152C29.384 23.176 29.0213 23.9867 28.296 24.584C27.6133 25.1387 26.6533 25.416 25.416 25.416H9.096V35.272C9.096 36.2533 9.33067 37.0213 9.8 37.576C10.312 38.1307 10.9947 38.408 11.848 38.408H31.688C32.968 38.408 33.9493 38.7067 34.632 39.304C35.3147 39.8587 35.656 40.6693 35.656 41.736C35.656 42.76 35.2933 43.5707 34.568 44.168C33.8853 44.7227 32.9253 45 31.688 45H10.824Z" fill="white" />
</svg>