<svg width="300" viewBox="0 0 295 47" fill="none" xmlns="http://www.w3.org/2000/svg">
    <path d="M10.824 46C7.58133 46 5.064 45.1467 3.272 43.44C1.48 41.7333 0.584 39.344 0.584 36.272V10.672C0.584 7.68533 1.43733 5.36 3.144 3.696C4.89333 2.032 7.304 1.2 10.376 1.2H30.28C31.56 1.2 32.5413 1.49866 33.224 2.096C33.9067 2.65066 34.248 3.46133 34.248 4.528C34.248 5.552 33.8853 6.36267 33.16 6.96C32.4773 7.51467 31.5173 7.792 30.28 7.792H11.848C10.9947 7.792 10.312 8.06933 9.8 8.624C9.33067 9.17866 9.096 9.94666 9.096 10.928V19.824H25.416C26.696 19.824 27.6773 20.1227 28.36 20.72C29.0427 21.2747 29.384 22.0853 29.384 23.152C29.384 24.176 29.0213 24.9867 28.296 25.584C27.6133 26.1387 26.6533 26.416 25.416 26.416H9.096V36.272C9.096 37.2533 9.33067 38.0213 9.8 38.576C10.312 39.1307 10.9947 39.408 11.848 39.408H31.688C32.968 39.408 33.9493 39.7067 34.632 40.304C35.3147 40.8587 35.656 41.6693 35.656 42.736C35.656 43.76 35.2933 44.5707 34.568 45.168C33.8853 45.7227 32.9253 46 31.688 46H10.824ZM63.558 46.64C62.278 46.64 61.254 46.2987 60.486 45.616C59.718 44.9333 59.334 43.9947 59.334 42.8V4.4C59.334 3.20533 59.718 2.26667 60.486 1.584C61.254 0.901332 62.278 0.559998 63.558 0.559998C64.838 0.559998 65.862 0.922665 66.63 1.648C67.4407 2.33066 67.846 3.248 67.846 4.4V19.696H90.822V4.4C90.822 3.248 91.206 2.33066 91.974 1.648C92.7847 0.922665 93.83 0.559998 95.11 0.559998C96.39 0.559998 97.414 0.901332 98.182 1.584C98.95 2.26667 99.334 3.20533 99.334 4.4V42.8C99.334 43.9947 98.95 44.9333 98.182 45.616C97.414 46.2987 96.39 46.64 95.11 46.64C93.83 46.64 92.7847 46.2987 91.974 45.616C91.206 44.8907 90.822 43.952 90.822 42.8V26.288H67.846V42.8C67.846 43.952 67.4407 44.8907 66.63 45.616C65.862 46.2987 64.838 46.64 63.558 46.64ZM146.495 46.64C141.673 46.64 137.492 45.7227 133.951 43.888C130.409 42.0533 127.7 39.408 125.823 35.952C123.945 32.496 123.007 28.4 123.007 23.664C123.007 18.928 123.945 14.832 125.823 11.376C127.7 7.87733 130.388 5.21067 133.887 3.376C137.428 1.49866 141.588 0.559998 146.367 0.559998C150.335 0.559998 154.004 1.24266 157.375 2.608C160.745 3.97333 163.241 5.78666 164.863 8.048C165.375 8.73066 165.631 9.43467 165.631 10.16C165.631 11.2267 165.055 12.1867 163.903 13.04C163.391 13.424 162.751 13.616 161.983 13.616C161.343 13.616 160.703 13.488 160.062 13.232C159.423 12.9333 158.889 12.528 158.463 12.016C157.012 10.352 155.327 9.15733 153.407 8.432C151.487 7.664 149.14 7.28 146.367 7.28C141.716 7.28 138.089 8.73067 135.487 11.632C132.884 14.4907 131.583 18.5013 131.583 23.664C131.583 28.784 132.884 32.7733 135.487 35.632C138.132 38.4907 141.801 39.92 146.495 39.92C151.871 39.92 156.159 38.3413 159.359 35.184C160.681 33.9467 161.897 33.328 163.007 33.328C163.775 33.328 164.479 33.584 165.119 34.096C166.1 34.9493 166.591 35.888 166.591 36.912C166.591 37.68 166.313 38.4267 165.759 39.152C163.924 41.4987 161.3 43.3333 157.887 44.656C154.516 45.9787 150.719 46.64 146.495 46.64ZM194.496 46.64C193.216 46.64 192.192 46.2987 191.424 45.616C190.656 44.9333 190.272 43.9947 190.272 42.8V4.4C190.272 3.20533 190.656 2.26667 191.424 1.584C192.192 0.901332 193.216 0.559998 194.496 0.559998C195.776 0.559998 196.8 0.922665 197.568 1.648C198.378 2.33066 198.784 3.248 198.784 4.4V19.696H221.76V4.4C221.76 3.248 222.144 2.33066 222.912 1.648C223.722 0.922665 224.768 0.559998 226.048 0.559998C227.328 0.559998 228.352 0.901332 229.12 1.584C229.888 2.26667 230.272 3.20533 230.272 4.4V42.8C230.272 43.9947 229.888 44.9333 229.12 45.616C228.352 46.2987 227.328 46.64 226.048 46.64C224.768 46.64 223.722 46.2987 222.912 45.616C222.144 44.8907 221.76 43.952 221.76 42.8V26.288H198.784V42.8C198.784 43.952 198.378 44.8907 197.568 45.616C196.8 46.2987 195.776 46.64 194.496 46.64ZM274.232 46.64C270.221 46.64 266.701 45.8293 263.672 44.208C260.685 42.5867 258.36 40.2827 256.696 37.296C255.075 34.2667 254.264 30.704 254.264 26.608V4.4C254.264 3.20533 254.648 2.26667 255.416 1.584C256.184 0.901332 257.208 0.559998 258.488 0.559998C259.768 0.559998 260.792 0.922665 261.56 1.648C262.371 2.33066 262.776 3.248 262.776 4.4V26.8C262.776 31.024 263.779 34.2667 265.784 36.528C267.789 38.7893 270.669 39.92 274.424 39.92C278.136 39.92 280.995 38.7893 283 36.528C285.048 34.224 286.072 30.9813 286.072 26.8V4.4C286.072 3.248 286.456 2.33066 287.224 1.648C288.035 0.922665 289.08 0.559998 290.36 0.559998C291.64 0.559998 292.664 0.901332 293.432 1.584C294.2 2.26667 294.584 3.20533 294.584 4.4V26.608C294.584 30.576 293.731 34.0747 292.024 37.104C290.36 40.1333 287.992 42.48 284.92 44.144C281.848 45.808 278.285 46.64 274.232 46.64Z" fill="white" />
</svg>
